<svg width="93" height="27" viewBox="0 0 93 27" fill="none" xmlns="http://www.w3.org/2000/svg">
<g clip-path="url(#clip0_10_2)">
<path d="M3.87945 25.2443V22.2451H5.20107C5.53563 22.2451 5.77528 22.2712 5.92713 22.3258C6.07424 22.3804 6.19525 22.4753 6.28779 22.6153C6.37796 22.7529 6.42067 22.9119 6.42067 23.0874C6.42067 23.3129 6.35423 23.4979 6.22135 23.645C6.08611 23.7921 5.88442 23.8847 5.6163 23.9227C5.75155 23.9986 5.8607 24.0816 5.94849 24.1742C6.03865 24.2667 6.15492 24.428 6.30203 24.6606L6.68167 25.2443H5.94137L5.49055 24.587C5.32445 24.3569 5.21294 24.2121 5.15362 24.1504C5.09192 24.0911 5.02786 24.0484 4.95905 24.0271C4.89024 24.0057 4.78347 23.9938 4.63873 23.9938H4.50823V25.2443H3.87945ZM4.50823 23.5122H4.97566C5.27463 23.5122 5.46445 23.5003 5.538 23.4766C5.61393 23.4528 5.67088 23.4101 5.71359 23.3508C5.75867 23.2915 5.77765 23.2156 5.77765 23.1254C5.77765 23.0234 5.74918 22.9427 5.6946 22.881C5.64003 22.8193 5.55936 22.7814 5.4597 22.7647C5.4075 22.7576 5.25327 22.7553 4.99939 22.7553H4.5106V23.5145L4.50823 23.5122Z" fill="white"/>
<path d="M8.31175 24.5585L8.90968 24.6582C8.83375 24.8694 8.71274 25.0284 8.54665 25.1375C8.38056 25.2466 8.1765 25.3036 7.92974 25.3036C7.53586 25.3036 7.24876 25.1802 7.06131 24.9311C6.91183 24.7341 6.8359 24.4826 6.8359 24.1789C6.8359 23.8159 6.93318 23.5335 7.13012 23.3295C7.32706 23.1254 7.57145 23.0234 7.87516 23.0234C8.20972 23.0234 8.47547 23.1301 8.67003 23.3437C8.86697 23.5572 8.95714 23.8847 8.95002 24.3236H7.44569C7.44807 24.4945 7.49552 24.6274 7.58806 24.7199C7.6806 24.8148 7.79449 24.8623 7.93211 24.8623C8.02465 24.8623 8.10295 24.8385 8.16464 24.7887C8.23108 24.7412 8.27616 24.6653 8.31175 24.5585ZM8.36158 23.9701C8.35683 23.804 8.31175 23.6783 8.22633 23.5928C8.13854 23.5074 8.03651 23.4623 7.91313 23.4623C7.78025 23.4623 7.67111 23.5098 7.58569 23.6C7.4979 23.6901 7.45756 23.8135 7.45756 23.9701H8.36395H8.36158Z" fill="white"/>
<path d="M9.22763 24.6487L9.83505 24.5585C9.85878 24.6677 9.91098 24.7531 9.98691 24.8101C10.0628 24.867 10.172 24.8931 10.3096 24.8931C10.4638 24.8931 10.5777 24.867 10.6537 24.8101C10.7035 24.7721 10.7296 24.7175 10.7296 24.6558C10.7296 24.6107 10.7153 24.5728 10.6869 24.5467C10.6584 24.5206 10.592 24.4921 10.4876 24.4684C10.0035 24.364 9.69744 24.2691 9.56693 24.186C9.3866 24.0674 9.29881 23.9037 9.29881 23.6925C9.29881 23.5027 9.37474 23.3437 9.53134 23.2156C9.68794 23.0874 9.92996 23.0234 10.2574 23.0234C10.5682 23.0234 10.7984 23.0708 10.9526 23.1681C11.1068 23.2654 11.2089 23.4078 11.2658 23.5952L10.6987 23.6949C10.675 23.6094 10.6299 23.5454 10.5587 23.5003C10.4923 23.4552 10.395 23.4339 10.2669 23.4339C10.1079 23.4339 9.99166 23.4552 9.92522 23.4979C9.87776 23.5288 9.85404 23.5667 9.85404 23.6166C9.85404 23.6593 9.87539 23.6925 9.91573 23.7233C9.9703 23.7613 10.1577 23.8182 10.4781 23.8871C10.7984 23.9582 11.0238 24.0437 11.1496 24.1433C11.2753 24.2477 11.337 24.3901 11.337 24.5728C11.337 24.7721 11.2516 24.9429 11.0784 25.0877C10.9052 25.23 10.6489 25.3036 10.3096 25.3036C9.99877 25.3036 9.75438 25.2443 9.5788 25.128C9.39847 25.0094 9.27983 24.8504 9.22526 24.6487H9.22763Z" fill="white"/>
<path d="M13.1545 24.5585L13.7525 24.6582C13.6765 24.8694 13.5555 25.0284 13.3918 25.1375C13.2257 25.2466 13.0193 25.3036 12.7725 25.3036C12.381 25.3036 12.0915 25.1802 11.9017 24.9311C11.7546 24.7341 11.6811 24.4826 11.6811 24.1789C11.6811 23.8159 11.7783 23.5335 11.9753 23.3295C12.1698 23.1254 12.4166 23.0234 12.7156 23.0234C13.0525 23.0234 13.3183 23.1301 13.5128 23.3437C13.7074 23.5572 13.7999 23.8847 13.7904 24.3236H12.2861C12.2909 24.4945 12.3383 24.6274 12.4308 24.7199C12.5234 24.8148 12.6373 24.8623 12.7749 24.8623C12.8674 24.8623 12.9457 24.8385 13.0098 24.7887C13.0739 24.7412 13.1213 24.6653 13.1545 24.5585ZM13.2067 23.9701C13.1996 23.804 13.1545 23.6783 13.0691 23.5928C12.9837 23.5074 12.8793 23.4623 12.7535 23.4623C12.6207 23.4623 12.5139 23.5098 12.4261 23.6C12.3383 23.6901 12.298 23.8135 12.3003 23.9701H13.2091H13.2067Z" fill="white"/>
<path d="M14.7182 23.7423L14.1819 23.645C14.2436 23.4339 14.348 23.2796 14.4975 23.1776C14.647 23.0756 14.8677 23.0258 15.1643 23.0258C15.43 23.0258 15.6269 23.0566 15.7574 23.1159C15.8879 23.1776 15.9805 23.2559 16.0327 23.3485C16.0873 23.441 16.1134 23.6118 16.1134 23.8633L16.1015 24.5348C16.1015 24.727 16.111 24.867 16.13 24.9572C16.1489 25.0473 16.1845 25.1446 16.2344 25.249H15.6364C15.6198 25.2111 15.6032 25.1565 15.5795 25.0829C15.5676 25.0473 15.5629 25.026 15.5581 25.0165C15.4561 25.1138 15.347 25.1873 15.2331 25.2348C15.1144 25.2846 14.9934 25.3083 14.8629 25.3083C14.6351 25.3083 14.4524 25.2467 14.3196 25.1256C14.1867 25.0046 14.1202 24.8504 14.1202 24.663C14.1202 24.5396 14.1511 24.4304 14.2128 24.3331C14.2721 24.2359 14.3575 24.1623 14.4667 24.1101C14.5782 24.0603 14.7348 24.0128 14.9412 23.9749C15.2212 23.925 15.4134 23.8776 15.5225 23.8325V23.7755C15.5225 23.664 15.4941 23.5857 15.4371 23.5383C15.3802 23.4908 15.271 23.4671 15.1144 23.4671C15.0053 23.4671 14.9222 23.4884 14.8629 23.5288C14.8036 23.5691 14.7561 23.6427 14.7182 23.7447V23.7423ZM15.5225 24.2074C15.4442 24.2311 15.3256 24.262 15.1619 24.2952C14.9934 24.3284 14.8843 24.3616 14.8368 24.3948C14.7585 24.447 14.7182 24.5158 14.7182 24.5965C14.7182 24.6772 14.749 24.746 14.8107 24.8053C14.8748 24.8646 14.9531 24.8931 15.0504 24.8931C15.1571 24.8931 15.2615 24.8599 15.3588 24.7911C15.43 24.7389 15.4775 24.6772 15.5012 24.6013C15.5154 24.5514 15.5249 24.4589 15.5249 24.3213V24.205L15.5225 24.2074Z" fill="white"/>
<path d="M17.2736 25.2443H16.6757V23.0708H17.2309V23.3793C17.3235 23.2346 17.4089 23.1373 17.4848 23.0922C17.5584 23.0471 17.6438 23.0234 17.7387 23.0234C17.8716 23.0234 18.0021 23.059 18.1278 23.1301L17.9475 23.6308C17.8478 23.5691 17.7529 23.5383 17.6699 23.5383C17.5868 23.5383 17.5157 23.5596 17.4587 23.6047C17.4018 23.6474 17.3591 23.7281 17.3235 23.8467C17.2926 23.963 17.2736 24.205 17.2736 24.5752V25.2466V25.2443Z" fill="white"/>
<path d="M20.3487 23.702L19.7626 23.8087C19.7413 23.6972 19.6986 23.6142 19.6298 23.5572C19.5586 23.5003 19.4708 23.4742 19.3593 23.4742C19.2122 23.4742 19.0959 23.524 19.0057 23.6237C18.9203 23.7233 18.8752 23.8894 18.8752 24.1243C18.8752 24.3853 18.9203 24.568 19.0105 24.6772C19.0983 24.784 19.2193 24.8385 19.3711 24.8385C19.485 24.8385 19.5752 24.8077 19.6511 24.746C19.7223 24.6819 19.7721 24.5751 19.803 24.4233L20.3914 24.5206C20.3297 24.7792 20.2135 24.9738 20.0403 25.1066C19.8694 25.2395 19.6369 25.3036 19.3474 25.3036C19.0176 25.3036 18.7542 25.2039 18.5597 25.0022C18.3651 24.8006 18.2678 24.5206 18.2678 24.1647C18.2678 23.8087 18.3651 23.524 18.5597 23.3223C18.7566 23.1207 19.0176 23.021 19.3522 23.021C19.6227 23.021 19.8433 23.0756 20.0023 23.1895C20.1636 23.301 20.2775 23.4718 20.3487 23.6996V23.702Z" fill="white"/>
<path d="M21.4093 22.2451V23.3484C21.6015 23.1302 21.8293 23.0234 22.0974 23.0234C22.2351 23.0234 22.3584 23.0471 22.4676 23.0969C22.5791 23.1468 22.6622 23.2085 22.7167 23.2868C22.7713 23.3627 22.8093 23.4481 22.8306 23.5406C22.8496 23.6332 22.8615 23.7779 22.8615 23.9725V25.2466H22.2659V24.1006C22.2659 23.8728 22.2564 23.7281 22.2303 23.6664C22.209 23.6047 22.1686 23.5549 22.1117 23.5193C22.0547 23.4837 21.9835 23.4647 21.8981 23.4647C21.7985 23.4647 21.7107 23.4884 21.6348 23.5335C21.5588 23.5786 21.5019 23.6498 21.4639 23.7423C21.4283 23.8349 21.4093 23.9749 21.4093 24.1576V25.2443H20.8114V22.2451H21.4093Z" fill="white"/>
<path d="M29.5479 24.1433L30.1458 24.3237C30.0509 24.6535 29.8943 24.8955 29.6784 25.0568C29.4601 25.2158 29.1825 25.2965 28.8479 25.2965C28.4327 25.2965 28.091 25.1612 27.8253 24.8884C27.5595 24.6155 27.4266 24.243 27.4266 23.7708C27.4266 23.2702 27.5595 22.881 27.8276 22.6058C28.0958 22.3305 28.4469 22.1906 28.8835 22.1906C29.2655 22.1906 29.5763 22.2997 29.8136 22.5156C29.9536 22.6437 30.0604 22.8264 30.1316 23.0661L29.5147 23.2132C29.4767 23.0566 29.4008 22.9332 29.2821 22.8431C29.1659 22.7529 29.0235 22.7078 28.8527 22.7078C28.6201 22.7078 28.4327 22.7885 28.2879 22.9498C28.1432 23.1088 28.072 23.3698 28.072 23.7281C28.072 24.1101 28.1432 24.3806 28.2879 24.5419C28.4303 24.7033 28.6178 24.7863 28.8455 24.7863C29.014 24.7863 29.1587 24.7341 29.2821 24.6321C29.4031 24.5301 29.4933 24.3687 29.5431 24.1481L29.5479 24.1433Z" fill="white"/>
<path d="M30.5302 24.1315C30.5302 23.9393 30.5777 23.7542 30.6749 23.5739C30.7722 23.3959 30.9122 23.2583 31.0949 23.1634C31.2729 23.0685 31.4746 23.021 31.6976 23.021C32.0416 23.021 32.3216 23.1278 32.5399 23.3437C32.7582 23.5573 32.8697 23.8278 32.8697 24.1552C32.8697 24.4826 32.7606 24.7579 32.5375 24.9762C32.3169 25.1921 32.0369 25.3012 31.7 25.3012C31.4935 25.3012 31.2942 25.2562 31.1068 25.166C30.9193 25.0758 30.7746 24.943 30.6773 24.7697C30.58 24.5965 30.5326 24.3806 30.5326 24.1315H30.5302ZM31.1376 24.1623C31.1376 24.3806 31.1898 24.5443 31.2966 24.663C31.4057 24.7792 31.5362 24.8362 31.6952 24.8362C31.8542 24.8362 31.9847 24.7792 32.0915 24.663C32.1959 24.5467 32.2504 24.3782 32.2504 24.1576C32.2504 23.9369 32.1959 23.7779 32.0915 23.6617C31.9847 23.5454 31.8542 23.4885 31.6952 23.4885C31.5362 23.4885 31.4057 23.5478 31.2966 23.6617C31.1898 23.7779 31.1376 23.944 31.1376 24.1623Z" fill="white"/>
<path d="M35.3825 25.2443H34.7845V24.1362C34.7845 23.9013 34.7727 23.7495 34.7466 23.6807C34.7205 23.6118 34.6801 23.5596 34.6232 23.5193C34.5686 23.4813 34.4974 23.4624 34.4168 23.4624C34.3124 23.4624 34.2222 23.4908 34.1415 23.5454C34.0585 23.6 34.0039 23.6712 33.9731 23.7613C33.9422 23.8515 33.928 24.02 33.928 24.2596V25.2443H33.33V23.0709H33.8876V23.3888C34.0846 23.1444 34.329 23.021 34.6279 23.021C34.7584 23.021 34.8794 23.0448 34.9862 23.0898C35.0954 23.1373 35.1784 23.1942 35.233 23.2654C35.2876 23.3366 35.3279 23.4173 35.3493 23.5074C35.3706 23.5952 35.3825 23.7257 35.3825 23.8918V25.2443Z" fill="white"/>
<path d="M35.7835 24.6487L36.3909 24.5585C36.417 24.6677 36.4692 24.7531 36.5475 24.8101C36.621 24.867 36.7302 24.8931 36.8678 24.8931C37.0197 24.8931 37.1336 24.867 37.2095 24.8101C37.2641 24.7721 37.2902 24.7175 37.2902 24.6558C37.2902 24.6107 37.2759 24.5728 37.2475 24.5467C37.219 24.5206 37.1502 24.4921 37.0481 24.4684C36.5641 24.364 36.258 24.2691 36.1275 24.186C35.9472 24.0674 35.8594 23.9037 35.8594 23.6925C35.8594 23.5027 35.9377 23.3437 36.0919 23.2156C36.2485 23.0874 36.4905 23.0234 36.818 23.0234C37.1454 23.0234 37.3613 23.0708 37.5156 23.1681C37.6674 23.2654 37.7718 23.4078 37.8288 23.5952L37.2617 23.6949C37.2356 23.6094 37.1929 23.5454 37.1217 23.5003C37.0553 23.4552 36.9532 23.4339 36.8299 23.4339C36.6709 23.4339 36.5546 23.4552 36.4858 23.4979C36.4407 23.5288 36.417 23.5667 36.417 23.6166C36.417 23.6593 36.4383 23.6925 36.4787 23.7233C36.5333 23.7613 36.7183 23.8182 37.041 23.8871C37.3613 23.9582 37.5844 24.0437 37.7125 24.1433C37.8383 24.2477 37.9 24.3901 37.9 24.5728C37.9 24.7721 37.8145 24.9429 37.639 25.0877C37.4681 25.23 37.2095 25.3036 36.8702 25.3036C36.5641 25.3036 36.3197 25.2443 36.1394 25.128C35.959 25.0094 35.8404 24.8504 35.7858 24.6487H35.7835Z" fill="white"/>
<path d="M39.9073 25.2443V24.9192C39.8266 25.0355 39.7151 25.128 39.5822 25.1968C39.4494 25.2656 39.3094 25.3012 39.1599 25.3012C39.0104 25.3012 38.8728 25.268 38.7518 25.2039C38.6331 25.1422 38.5454 25.0497 38.4908 24.9334C38.4386 24.8172 38.4101 24.6582 38.4101 24.4518V23.0708H39.008V24.0721C39.008 24.3782 39.0175 24.5657 39.0413 24.6368C39.0626 24.708 39.1006 24.7602 39.1599 24.8029C39.2192 24.8433 39.2928 24.8646 39.3806 24.8646C39.4826 24.8646 39.5728 24.8362 39.6534 24.784C39.7317 24.7318 39.7887 24.6629 39.8171 24.5846C39.8456 24.504 39.8622 24.307 39.8622 23.9962V23.0779H40.4602V25.2514H39.9049L39.9073 25.2443Z" fill="white"/>
<path d="M41.07 25.2443V22.2451H41.6679V25.2443H41.07Z" fill="white"/>
<path d="M43.3407 23.0708V23.5288H42.9302V24.4114C42.9302 24.5918 42.9349 24.6962 42.9421 24.7246C42.9492 24.7531 42.9658 24.7792 42.9943 24.7982C43.0227 24.8172 43.056 24.8267 43.0963 24.8267C43.1509 24.8267 43.2315 24.8077 43.3359 24.7721L43.3834 25.2158C43.2434 25.2727 43.0868 25.3012 42.9136 25.3012C42.8044 25.3012 42.7095 25.2822 42.6241 25.249C42.5387 25.2158 42.4746 25.1683 42.4343 25.1138C42.394 25.0592 42.3655 24.9833 42.3512 24.8884C42.3394 24.8219 42.3323 24.6867 42.3323 24.4802V23.5288H42.0428V23.0708H42.3323V22.6366L42.9302 22.3021V23.0708H43.3407Z" fill="white"/>
<path d="M44.1711 23.7423L43.6373 23.645C43.6966 23.4339 43.801 23.2796 43.9505 23.1776C44.0976 23.0756 44.3206 23.0258 44.6148 23.0258C44.8806 23.0258 45.0775 23.0566 45.208 23.1159C45.3385 23.1776 45.4311 23.2559 45.4809 23.3485C45.5331 23.441 45.5616 23.6118 45.5616 23.8633L45.5521 24.5348C45.5521 24.727 45.5616 24.867 45.5806 24.9572C45.5995 25.0473 45.6351 25.1446 45.6873 25.249H45.087C45.0728 25.2111 45.0514 25.1565 45.0301 25.0829C45.0206 25.0473 45.0135 25.026 45.0087 25.0165C44.9067 25.1138 44.7999 25.1873 44.686 25.2348C44.5698 25.2846 44.4464 25.3083 44.3159 25.3083C44.0834 25.3083 43.9054 25.2467 43.7701 25.1256C43.6373 25.0046 43.5708 24.8504 43.5708 24.663C43.5708 24.5396 43.6017 24.4304 43.6634 24.3331C43.7227 24.2359 43.8081 24.1623 43.9173 24.1101C44.0264 24.0603 44.1854 24.0128 44.3894 23.9749C44.667 23.925 44.864 23.8776 44.9708 23.8325V23.7755C44.9708 23.664 44.9423 23.5857 44.883 23.5383C44.8284 23.4908 44.7193 23.4671 44.5603 23.4671C44.4535 23.4671 44.3705 23.4884 44.3111 23.5288C44.2518 23.5691 44.202 23.6427 44.164 23.7447L44.1711 23.7423ZM44.9755 24.2074C44.8996 24.2311 44.7786 24.262 44.6125 24.2952C44.4488 24.3284 44.3396 24.3616 44.2874 24.3948C44.2091 24.447 44.1688 24.5158 44.1688 24.5965C44.1688 24.6772 44.1996 24.746 44.2613 24.8053C44.323 24.8646 44.4013 24.8931 44.501 24.8931C44.6077 24.8931 44.7098 24.8599 44.8094 24.7911C44.8806 24.7389 44.9281 24.6772 44.9518 24.6013C44.966 24.5514 44.9731 24.4589 44.9731 24.3213V24.205L44.9755 24.2074Z" fill="white"/>
<path d="M48.2024 25.2443H47.6045V24.1362C47.6045 23.9013 47.595 23.7495 47.5689 23.6807C47.5452 23.6118 47.5025 23.5596 47.4432 23.5193C47.3886 23.4813 47.3198 23.4624 47.2391 23.4624C47.1347 23.4624 47.0445 23.4908 46.9615 23.5454C46.8808 23.6 46.8239 23.6712 46.7954 23.7613C46.7646 23.8515 46.748 24.02 46.748 24.2596V25.2443H46.15V23.0709H46.7076V23.3888C46.9022 23.1444 47.1513 23.021 47.4479 23.021C47.5784 23.021 47.6994 23.0448 47.8062 23.0898C47.9153 23.1373 47.996 23.1942 48.053 23.2654C48.1099 23.3366 48.1455 23.4173 48.1692 23.5074C48.1906 23.5952 48.2024 23.7257 48.2024 23.8918V25.2443Z" fill="white"/>
<path d="M50.7698 23.702L50.1837 23.8088C50.16 23.6973 50.1196 23.6142 50.0485 23.5573C49.9796 23.5003 49.8895 23.4742 49.7803 23.4742C49.6332 23.4742 49.5146 23.5241 49.4268 23.6237C49.3414 23.7234 49.2963 23.8895 49.2963 24.1244C49.2963 24.3854 49.3437 24.5681 49.4315 24.6772C49.5217 24.784 49.6451 24.8386 49.7922 24.8386C49.9061 24.8386 49.9986 24.8077 50.0746 24.746C50.1434 24.682 50.1956 24.5752 50.2264 24.4233L50.8125 24.5206C50.7532 24.7792 50.6345 24.9738 50.4637 25.1067C50.2905 25.2395 50.0603 25.3036 49.7708 25.3036C49.441 25.3036 49.18 25.204 48.9831 25.0023C48.7885 24.8006 48.6936 24.5206 48.6936 24.1647C48.6936 23.8088 48.7885 23.524 48.9831 23.3224C49.18 23.1207 49.441 23.021 49.7756 23.021C50.0485 23.021 50.2667 23.0756 50.4281 23.1895C50.5847 23.301 50.7033 23.4718 50.7745 23.6996L50.7698 23.702Z" fill="white"/>
<path d="M50.943 23.0708H51.5694L52.108 24.6155L52.63 23.0708H53.2588L52.4639 25.1612L52.3168 25.5504C52.2646 25.6761 52.2171 25.7734 52.1697 25.8422C52.1199 25.9086 52.0653 25.9632 52.0036 26.0059C51.9443 26.0486 51.866 26.0795 51.7758 26.1032C51.6857 26.1269 51.586 26.1388 51.4721 26.1388C51.3582 26.1388 51.2443 26.1246 51.1328 26.1032L51.0901 25.6524C51.1826 25.6714 51.2657 25.6809 51.3392 25.6809C51.4745 25.6809 51.5765 25.6405 51.6429 25.5598C51.707 25.4815 51.7568 25.3795 51.7924 25.2538L50.9382 23.0708H50.943Z" fill="white"/>
<path d="M57.8263 24.2809L58.4338 24.224C58.4693 24.4186 58.5453 24.5586 58.6568 24.6511C58.7683 24.7413 58.9225 24.7887 59.1124 24.7887C59.3117 24.7887 59.4659 24.7484 59.5679 24.6653C59.6723 24.5847 59.7222 24.4874 59.7222 24.3782C59.7222 24.3094 59.7008 24.2477 59.6557 24.2003C59.613 24.1504 59.5395 24.1077 59.4327 24.0721C59.3591 24.0484 59.193 24.0033 58.932 23.9393C58.5951 23.8562 58.3602 23.7566 58.2273 23.6379C58.0375 23.4718 57.9426 23.2702 57.9426 23.0305C57.9426 22.8786 57.9853 22.7339 58.0755 22.5987C58.1633 22.4658 58.2938 22.3638 58.4622 22.295C58.6307 22.2261 58.8324 22.1906 59.072 22.1906C59.4612 22.1906 59.753 22.2736 59.9499 22.4373C60.1469 22.6034 60.2489 22.8241 60.2608 23.0969L59.632 23.123C59.6035 22.9688 59.5466 22.8573 59.4588 22.7909C59.371 22.7244 59.2381 22.6912 59.0625 22.6912C58.8798 22.6912 58.7398 22.7268 58.6354 22.8003C58.569 22.8454 58.5382 22.9095 58.5382 22.9878C58.5382 23.059 58.569 23.1207 58.6331 23.1705C58.7114 23.2346 58.9012 23.3034 59.2073 23.3722C59.5134 23.4434 59.7411 23.5169 59.8859 23.5905C60.033 23.664 60.1469 23.7661 60.2299 23.8942C60.3106 24.0247 60.3533 24.1837 60.3533 24.3735C60.3533 24.5467 60.3059 24.708 60.2062 24.8575C60.1065 25.007 59.9666 25.1209 59.7862 25.1945C59.6059 25.268 59.3805 25.3036 59.11 25.3036C58.7161 25.3036 58.4148 25.2158 58.206 25.0426C57.9948 24.8694 57.869 24.6155 57.8287 24.2809H57.8263Z" fill="white"/>
<path d="M62.1803 24.5585L62.7783 24.6582C62.7023 24.8694 62.5813 25.0284 62.4176 25.1375C62.2515 25.2466 62.0451 25.3036 61.7983 25.3036C61.4068 25.3036 61.1173 25.1802 60.9299 24.9311C60.7828 24.7341 60.7045 24.4826 60.7045 24.1789C60.7045 23.8159 60.8041 23.5335 60.9987 23.3295C61.198 23.1254 61.4424 23.0234 61.7437 23.0234C62.0807 23.0234 62.3464 23.1301 62.541 23.3437C62.7355 23.5572 62.8281 23.8847 62.821 24.3236H61.3166C61.3214 24.4945 61.3688 24.6274 61.4614 24.7199C61.5515 24.8148 61.6654 24.8623 61.8031 24.8623C61.898 24.8623 61.9763 24.8385 62.038 24.7887C62.102 24.7412 62.1471 24.6653 62.1803 24.5585ZM62.2325 23.9701C62.2278 23.804 62.1827 23.6783 62.0973 23.5928C62.0119 23.5074 61.9051 23.4623 61.7817 23.4623C61.6465 23.4623 61.5397 23.5098 61.4543 23.6C61.3688 23.6901 61.3238 23.8135 61.3261 23.9701H62.2325Z" fill="white"/>
<path d="M63.8816 25.2443H63.2813V23.0708H63.8389V23.3793C63.9314 23.2346 64.0145 23.1373 64.0904 23.0922C64.1663 23.0471 64.2517 23.0234 64.3467 23.0234C64.4819 23.0234 64.61 23.059 64.7358 23.1301L64.5578 23.6308C64.4534 23.5691 64.3633 23.5383 64.2778 23.5383C64.1924 23.5383 64.126 23.5596 64.069 23.6047C64.0121 23.6474 63.9646 23.7281 63.9314 23.8467C63.8982 23.963 63.884 24.205 63.884 24.5752V25.2466L63.8816 25.2443Z" fill="white"/>
<path d="M65.6161 25.2443L64.7097 23.0708H65.3385L65.7632 24.1789L65.8866 24.5491C65.9198 24.4541 65.9388 24.3948 65.9459 24.364C65.9696 24.3023 65.9862 24.2406 66.0076 24.1789L66.4347 23.0708H67.0492L66.1547 25.2443H65.6161Z" fill="white"/>
<path d="M67.417 22.7766V22.2451H68.0173V22.7766H67.417ZM67.417 25.2443V23.0708H68.0173V25.2443H67.417Z" fill="white"/>
<path d="M70.587 23.702L69.9985 23.8088C69.9796 23.6973 69.9369 23.6142 69.8657 23.5573C69.7969 23.5003 69.7091 23.4742 69.5975 23.4742C69.4504 23.4742 69.3294 23.5241 69.2464 23.6237C69.1586 23.7234 69.1159 23.8895 69.1159 24.1244C69.1159 24.3854 69.161 24.5681 69.2511 24.6772C69.3413 24.784 69.4599 24.8386 69.6094 24.8386C69.7233 24.8386 69.8182 24.8077 69.8894 24.746C69.9606 24.682 70.0128 24.5752 70.0413 24.4233L70.6297 24.5206C70.5656 24.7792 70.4517 24.9738 70.2785 25.1067C70.1077 25.2395 69.8752 25.3036 69.5857 25.3036C69.2582 25.3036 68.9949 25.204 68.7979 25.0023C68.6034 24.8006 68.5061 24.5206 68.5061 24.1647C68.5061 23.8088 68.6034 23.524 68.7979 23.3224C68.9925 23.1207 69.2582 23.021 69.5928 23.021C69.8633 23.021 70.0792 23.0756 70.2406 23.1895C70.4019 23.301 70.5182 23.4718 70.5894 23.6996L70.587 23.702Z" fill="white"/>
<path d="M72.3499 24.5585L72.9479 24.6582C72.8719 24.8694 72.7486 25.0284 72.5825 25.1375C72.4187 25.2466 72.2147 25.3036 71.9679 25.3036C71.574 25.3036 71.2846 25.1802 71.0971 24.9311C70.9476 24.7341 70.8765 24.4826 70.8765 24.1789C70.8765 23.8159 70.9737 23.5335 71.1683 23.3295C71.3652 23.1254 71.612 23.0234 71.911 23.0234C72.2503 23.0234 72.5137 23.1301 72.7059 23.3437C72.9028 23.5572 72.9953 23.8847 72.9882 24.3236H71.4815C71.4863 24.4945 71.5361 24.6274 71.6262 24.7199C71.7212 24.8148 71.8327 24.8623 71.9703 24.8623C72.0628 24.8623 72.1411 24.8385 72.2028 24.7887C72.2669 24.7412 72.3143 24.6653 72.3476 24.5585H72.3499ZM72.3998 23.9701C72.3974 23.804 72.3499 23.6783 72.2645 23.5928C72.1791 23.5074 72.0723 23.4623 71.9489 23.4623C71.8184 23.4623 71.7069 23.5098 71.6215 23.6C71.5385 23.6901 71.4934 23.8135 71.4957 23.9701H72.3998Z" fill="white"/>
<path d="M1.45212 23.8918V23.8538C1.3501 23.8681 1.27417 23.8894 1.22434 23.9203C1.17214 23.9511 1.08672 24.0247 0.963337 24.1433C0.839954 24.262 0.699962 24.3237 0.548106 24.3237C0.39625 24.3237 0.270494 24.2691 0.16372 24.1599C0.0545733 24.0508 0.00237274 23.9227 0.00237274 23.7708C0.00237274 23.6308 0.0545733 23.5098 0.161347 23.4054C0.268121 23.301 0.39625 23.2488 0.54336 23.2488C0.704707 23.2488 0.849445 23.3129 0.977574 23.441C1.09147 23.5596 1.17926 23.6356 1.23858 23.6688C1.29552 23.702 1.36908 23.7186 1.45687 23.7186C1.45687 23.6403 1.44026 23.5715 1.4023 23.5098C1.3667 23.4457 1.30739 23.3746 1.21722 23.2915C1.12943 23.2108 1.07011 23.1349 1.03452 23.0661C0.998928 22.9997 0.982319 22.9214 0.982319 22.8336C0.982319 22.6912 1.03689 22.5678 1.14129 22.461C1.24807 22.3566 1.3762 22.3044 1.52093 22.3044C1.66567 22.3044 1.80329 22.3566 1.91006 22.4587C2.01921 22.5607 2.07378 22.6817 2.07378 22.8217C2.07378 22.9166 2.05718 22.9997 2.02396 23.0661C1.99074 23.1325 1.93142 23.2061 1.84126 23.2868C1.75109 23.3651 1.6894 23.4339 1.65618 23.4932C1.62296 23.5525 1.60161 23.6284 1.59449 23.7186C1.68228 23.7186 1.75584 23.6996 1.81753 23.664C1.87922 23.6284 1.96701 23.5478 2.07853 23.4291C2.19242 23.3105 2.32767 23.2512 2.48664 23.2512C2.63613 23.2512 2.76426 23.3034 2.87103 23.4078C2.9778 23.5122 3.03238 23.6403 3.03238 23.7922C3.03238 23.944 2.9778 24.0674 2.8734 24.1694C2.769 24.2715 2.64087 24.3237 2.49376 24.3237C2.40122 24.3237 2.31818 24.3047 2.24937 24.2715C2.18056 24.2382 2.107 24.1789 2.02158 24.0935C1.93854 24.0057 1.86736 23.944 1.80329 23.9084C1.73923 23.8728 1.67042 23.8538 1.59449 23.8538C1.59449 23.925 1.61584 23.9962 1.65618 24.065C1.69652 24.1338 1.74635 24.1979 1.80804 24.2596L1.84126 24.2881L1.87447 24.3213L1.90769 24.3498C2.01921 24.4589 2.07378 24.5918 2.07378 24.746C2.07378 24.8884 2.01921 25.0118 1.91244 25.1162C1.80566 25.2206 1.67754 25.2704 1.52568 25.2704C1.37382 25.2704 1.24807 25.2182 1.13892 25.1114C1.03452 25.007 0.979946 24.8813 0.979946 24.7341C0.979946 24.587 1.03452 24.4589 1.14129 24.3592L1.22671 24.2809C1.37857 24.141 1.4545 24.0081 1.4545 23.8871L1.45212 23.8918Z" fill="white"/>
<path d="M25.2247 23.8918V23.8538C25.1227 23.8681 25.0468 23.8894 24.9969 23.9203C24.9447 23.9511 24.8593 24.0247 24.7336 24.1433C24.6102 24.262 24.4702 24.3237 24.3183 24.3237C24.1665 24.3237 24.0407 24.2691 23.9316 24.1599C23.8248 24.0508 23.7702 23.9227 23.7702 23.7708C23.7702 23.6308 23.8224 23.5098 23.9292 23.4054C24.036 23.301 24.1617 23.2488 24.3088 23.2488C24.4702 23.2488 24.6173 23.3129 24.7431 23.441C24.8593 23.5596 24.9447 23.6356 25.0017 23.6688C25.0586 23.702 25.1322 23.7186 25.22 23.7186C25.22 23.6403 25.201 23.5715 25.163 23.5098C25.1274 23.4457 25.0681 23.3746 24.9803 23.2915C24.8925 23.2108 24.8332 23.1349 24.7976 23.0661C24.762 22.9997 24.7454 22.9214 24.7454 22.8336C24.7454 22.6912 24.7976 22.5678 24.9044 22.461C25.0112 22.3566 25.1369 22.3044 25.284 22.3044C25.4312 22.3044 25.5664 22.3566 25.6755 22.4587C25.7847 22.5607 25.8393 22.6817 25.8393 22.8217C25.8393 22.9166 25.8227 22.9997 25.7894 23.0661C25.7562 23.1325 25.6969 23.2061 25.6067 23.2868C25.5166 23.3651 25.4573 23.4339 25.4217 23.4932C25.3884 23.5525 25.3695 23.6284 25.36 23.7186C25.4454 23.7186 25.5213 23.6996 25.583 23.664C25.6447 23.6284 25.7325 23.5478 25.844 23.4291C25.9555 23.3105 26.0931 23.2512 26.2521 23.2512C26.4016 23.2512 26.5297 23.3034 26.6365 23.4078C26.7433 23.5122 26.7979 23.6403 26.7979 23.7922C26.7979 23.944 26.7433 24.0674 26.6389 24.1694C26.5345 24.2715 26.404 24.3237 26.2569 24.3237C26.1643 24.3237 26.0813 24.3047 26.0125 24.2715C25.9437 24.2382 25.8701 24.1789 25.7847 24.0935C25.7016 24.0057 25.6281 23.944 25.5664 23.9084C25.5023 23.8728 25.4312 23.8538 25.3576 23.8538C25.3576 23.925 25.3766 23.9962 25.4169 24.065C25.4573 24.1338 25.5071 24.1979 25.5688 24.2596L25.602 24.2881L25.6352 24.3213L25.6684 24.3498C25.7799 24.4589 25.8369 24.5918 25.8369 24.746C25.8369 24.8884 25.7823 25.0118 25.6732 25.1162C25.5664 25.2206 25.4383 25.2704 25.2888 25.2704C25.1393 25.2704 25.0088 25.2182 24.902 25.1114C24.7976 25.007 24.7431 24.8813 24.7431 24.7341C24.7431 24.587 24.7953 24.4589 24.902 24.3592L24.9874 24.2809C25.1393 24.141 25.2152 24.0081 25.2152 23.8871L25.2247 23.8918Z" fill="white"/>
<path d="M55.5888 23.8918V23.8538C55.4868 23.8681 55.4109 23.8894 55.361 23.9203C55.3088 23.9511 55.2234 24.0247 55.0977 24.1433C54.9743 24.262 54.8367 24.3237 54.6848 24.3237C54.5329 24.3237 54.4072 24.2691 54.298 24.1599C54.1889 24.0508 54.1367 23.9227 54.1367 23.7708C54.1367 23.6308 54.1913 23.5098 54.2957 23.4054C54.4048 23.301 54.5282 23.2488 54.6777 23.2488C54.8367 23.2488 54.9861 23.3129 55.1095 23.441C55.2258 23.5596 55.3136 23.6356 55.3705 23.6688C55.4275 23.702 55.501 23.7186 55.5888 23.7186C55.5888 23.6403 55.5698 23.5715 55.5319 23.5098C55.4963 23.4457 55.437 23.3746 55.3468 23.2915C55.2614 23.2108 55.2021 23.1349 55.1641 23.0661C55.1285 22.9997 55.1143 22.9214 55.1143 22.8336C55.1143 22.6912 55.1665 22.5678 55.2709 22.461C55.38 22.3566 55.5058 22.3044 55.6529 22.3044C55.8 22.3044 55.9329 22.3566 56.042 22.4587C56.1512 22.5607 56.2057 22.6817 56.2057 22.8217C56.2057 22.9166 56.1915 22.9997 56.1583 23.0661C56.1251 23.1325 56.0657 23.2061 55.9732 23.2868C55.8854 23.3651 55.8214 23.4339 55.7905 23.4932C55.7573 23.5525 55.7383 23.6284 55.7312 23.7186C55.819 23.7186 55.8925 23.6996 55.9566 23.664C56.0159 23.6284 56.1037 23.5478 56.2152 23.4291C56.3291 23.3105 56.4644 23.2512 56.6257 23.2512C56.7752 23.2512 56.9033 23.3034 57.0077 23.4078C57.1169 23.5122 57.1691 23.6403 57.1691 23.7922C57.1691 23.944 57.1145 24.0674 57.0101 24.1694C56.9057 24.2715 56.7776 24.3237 56.6305 24.3237C56.5356 24.3237 56.4549 24.3047 56.3861 24.2715C56.3173 24.2382 56.2437 24.1789 56.1583 24.0935C56.0752 24.0057 56.0041 23.944 55.9376 23.9084C55.8759 23.8728 55.8047 23.8538 55.7312 23.8538C55.7312 23.925 55.7502 23.9962 55.7905 24.065C55.8308 24.1338 55.8807 24.1979 55.9424 24.2596L55.9756 24.2881L56.0088 24.3213L56.042 24.3498C56.1535 24.4589 56.2081 24.5918 56.2081 24.746C56.2081 24.8884 56.1559 25.0118 56.0468 25.1162C55.9376 25.2206 55.8119 25.2704 55.6624 25.2704C55.5129 25.2704 55.3824 25.2182 55.2732 25.1114C55.1688 25.007 55.1166 24.8813 55.1166 24.7341C55.1166 24.587 55.1688 24.4589 55.2756 24.3592L55.3634 24.2809C55.5153 24.141 55.5912 24.0081 55.5912 23.8871L55.5888 23.8918Z" fill="white"/>
<path d="M8.17887 4.91218C9.09476 5.31317 9.82082 6.13889 10.3547 7.38459C10.8458 8.53063 11.0926 9.82615 11.0926 11.2759C11.0926 12.8253 10.8197 14.173 10.274 15.3191C9.68557 16.579 8.87172 17.3264 7.8372 17.5684C7.43383 17.6562 6.98063 17.6966 6.47761 17.6966H0.306085V4.47797H6.13119C6.81692 4.47797 7.50027 4.6227 8.17887 4.91218ZM8.4731 11.3328C8.4731 10.1156 8.31649 9.11432 8.00092 8.33606C7.59755 7.35611 6.99013 6.86733 6.1739 6.86733H2.99441V15.4187H6.38745C7.12775 15.4187 7.67585 14.9726 8.03414 14.0829C8.32836 13.3521 8.4731 12.4362 8.4731 11.3305V11.3328Z" fill="white"/>
<path d="M19.9145 17.7725H15.8025C14.8012 17.7725 13.9352 17.2908 13.1972 16.3227C12.4593 15.3594 12.0939 14.2466 12.0939 12.9843C12.0939 11.6081 12.4949 10.4193 13.2969 9.41565C14.1013 8.41435 14.9982 7.9137 15.9876 7.9137H19.8955V9.93054H17.0316C16.6686 9.93054 16.3649 9.96375 16.111 10.0326C15.8571 10.1014 15.6246 10.2342 15.411 10.4336C15.0171 10.8085 14.8226 11.3115 14.8226 11.9474H19.8789V14.0022H14.8226C14.8226 14.3083 14.8511 14.5693 14.9151 14.7781C14.9768 14.9916 15.1049 15.2028 15.2948 15.414C15.4869 15.6251 15.7147 15.7651 15.9829 15.8363C16.2462 15.9075 16.5689 15.9431 16.9533 15.9431H19.9121V17.7749L19.9145 17.7725Z" fill="white"/>
<path d="M29.6997 14.6903C29.6997 15.5208 29.4601 16.2278 28.9832 16.8139C28.5062 17.4047 27.9012 17.6966 27.168 17.6966H21.3785V15.9051H26.1335C26.4728 15.9051 26.7528 15.8126 26.9853 15.6275C27.2155 15.4401 27.3294 15.1767 27.3294 14.8303C27.3294 14.0283 26.8358 13.6249 25.8464 13.6249H23.4214C22.9018 13.6249 22.4035 13.3497 21.9195 12.7945C21.4354 12.2416 21.1934 11.646 21.1934 11.003C21.1934 10.099 21.3737 9.36821 21.7344 8.81298C22.1473 8.18421 22.7642 7.871 23.5709 7.871H29.1303V9.73836H24.1641C23.9743 9.73836 23.8082 9.84276 23.6658 10.0468C23.5258 10.2509 23.457 10.4858 23.457 10.7468C23.457 11.0339 23.5496 11.2806 23.737 11.4847C23.9221 11.6888 24.1451 11.7932 24.4037 11.7932H27.0256C27.8514 11.7932 28.5015 12.0637 28.9808 12.6094C29.4601 13.1527 29.6997 13.8456 29.6997 14.6832V14.6903Z" fill="white"/>
<path d="M33.9636 17.6966H31.5932V4.47797H33.9636V17.6966ZM41.013 17.6966H37.6935L34.0703 12.9345L37.7101 7.86626H40.9988L37.0529 12.8372L41.0154 17.6942L41.013 17.6966Z" fill="white"/>
<path d="M46.9045 9.8736H44.603V14.3059C44.603 14.7045 44.7264 15.0391 44.9779 15.3025C45.2602 15.5682 45.6375 15.6987 46.1049 15.6987H46.8049V17.6017H44.622C43.9695 17.6017 43.4095 17.3383 42.9468 16.8115C42.6787 16.496 42.5031 16.1519 42.4248 15.7723C42.3489 15.395 42.3062 14.9489 42.3062 14.434V9.87123H40.8374V7.81643H42.3062V4.38306H44.603V7.8188H46.9045V9.8736Z" fill="white"/>
<path d="M57.4087 12.7684C57.4087 14.4649 56.9247 15.7699 55.9637 16.6763C55.0763 17.5091 53.8686 17.9244 52.3405 17.9244C50.8125 17.9244 49.6308 17.5471 48.7909 16.7902C47.8133 15.9218 47.3269 14.5669 47.3269 12.728C47.3269 11.1905 47.8489 9.98039 48.9072 9.1001C49.8491 8.30522 51.0118 7.91135 52.3904 7.91135C53.9065 7.91135 55.1214 8.33607 56.0396 9.18789C56.9532 10.0373 57.4111 11.2308 57.4111 12.7684H57.4087ZM54.7892 12.7589C54.7892 11.9664 54.5685 11.302 54.1272 10.7705C53.6835 10.2319 53.0761 9.96852 52.3144 9.96852C51.6216 9.96852 51.045 10.2414 50.5894 10.7871C50.1362 11.3352 49.9085 12.0233 49.9085 12.8514C49.9085 13.8053 50.1386 14.5669 50.5966 15.1316C51.0569 15.6987 51.6524 15.9787 52.3809 15.9787C53.2137 15.9787 53.8306 15.6845 54.2364 15.0937C54.6041 14.5527 54.7892 13.7768 54.7892 12.7589Z" fill="white"/>
<path d="M67.8061 12.5785C67.8061 14.1398 67.4431 15.3831 66.7194 16.3109C65.9933 17.2363 65.0395 17.6966 63.8579 17.6966H61.3095V21.2842H58.9415V7.91135H63.6348C64.9659 7.91135 66.0005 8.35268 66.7408 9.2306C67.4526 10.0753 67.8061 11.1929 67.8061 12.5762V12.5785ZM65.4357 12.728C65.4357 11.9094 65.2032 11.2356 64.731 10.7136C64.2636 10.1916 63.6752 9.92819 62.9728 9.92819H61.3072V15.6418H63.1413C63.8199 15.6418 64.3727 15.3737 64.7975 14.835C65.2222 14.3012 65.4334 13.5965 65.4334 12.7257L65.4357 12.728Z" fill="white"/>
<path d="M92.1695 17.0559C91.332 19.2839 89.9154 21.0754 87.9176 22.4278C85.9197 23.7827 83.6632 24.4589 81.1552 24.4589C78.092 24.4589 75.5721 23.4742 73.6028 21.5048C71.6286 19.5354 70.6463 16.999 70.6463 13.8954C70.6463 11.6081 71.1754 9.49396 72.2384 7.54831C73.3014 5.60502 74.7251 4.11731 76.5117 3.08279C78.2961 2.04827 80.3034 1.53101 82.5338 1.53101C85.1082 1.53101 87.1891 2.32351 88.7765 3.90376C90.1859 5.3108 90.9665 7.06901 91.1232 9.18076H86.4109L87.1322 6.72259L83.8602 6.87682L83.407 8.4547L83.1887 9.18076H80.9061L79.9712 10.6447H82.7545L81.44 15.0581C81.2335 15.7746 81.1315 16.356 81.1315 16.8044C81.1315 17.5732 81.3664 18.1759 81.8386 18.6124C82.3084 19.049 82.9941 19.2673 83.8981 19.2673C85.877 19.2673 87.6376 18.4986 89.1775 16.9586C91.0093 15.115 91.9275 12.766 91.9275 9.9092C91.9275 8.06557 91.536 6.44498 90.7506 5.04743C89.9629 3.64988 88.8524 2.5679 87.4122 1.80388C85.9743 1.03985 84.254 0.657837 82.2562 0.657837C78.4883 0.657837 75.3799 1.87269 72.9313 4.30001C70.4826 6.72734 69.2582 9.76446 69.2582 13.4137C69.2582 16.8258 70.3734 19.6375 72.6038 21.856C74.8342 24.0721 77.6744 25.1802 81.1244 25.1802C83.8435 25.1802 86.2329 24.485 88.2948 23.0922C90.3544 21.6994 91.9228 19.6897 93 17.0583H92.1695V17.0559ZM90.2286 14.1256C89.6117 15.4306 88.8168 16.4509 87.8535 17.1888C86.8878 17.9243 86.0668 18.2898 85.3835 18.2898C85.0489 18.2898 84.7784 18.1877 84.5744 17.9837C84.3679 17.7796 84.2659 17.5044 84.2659 17.158C84.2659 16.7403 84.3988 16.0712 84.6621 15.1506L85.9814 10.6447H91.1208C91.0401 11.8549 90.7554 13.0175 90.231 14.1232L90.2286 14.1256ZM74.9908 8.45707L73.0262 15.0604C72.8174 15.777 72.7177 16.3583 72.7177 16.8068C72.7177 17.5756 72.9526 18.1782 73.4224 18.6148C73.8946 19.0514 74.578 19.2697 75.482 19.2697C77.4608 19.2697 79.2214 18.5009 80.7613 16.961L79.4374 17.1912C78.4716 17.9267 77.6483 18.2921 76.9673 18.2921C76.6328 18.2921 76.3646 18.1901 76.1582 17.986C75.9518 17.782 75.8498 17.5067 75.8498 17.1603C75.8498 16.7427 75.985 16.0736 76.246 15.153L78.716 6.72496L75.4464 6.87919L74.9932 8.45707H74.9908ZM77.0338 4.44C76.9033 4.30476 76.7514 4.23595 76.5829 4.23595C76.4311 4.23595 76.2982 4.29052 76.1891 4.40204C76.0775 4.51356 76.0206 4.64169 76.0206 4.7888C76.0206 4.95014 76.0775 5.08539 76.1914 5.20166C76.3029 5.31792 76.4382 5.37487 76.5924 5.37487C76.7466 5.37487 76.8938 5.3108 77.0219 5.18505C77.1524 5.06166 77.2426 4.97862 77.2924 4.94777C77.347 4.91455 77.4253 4.8932 77.5297 4.87896V4.91693C77.5297 5.04505 77.449 5.18505 77.2924 5.33453L77.207 5.41758C77.0954 5.52435 77.0409 5.65722 77.0409 5.8162C77.0409 5.97517 77.0954 6.1033 77.207 6.21482C77.3161 6.32397 77.449 6.38091 77.6056 6.38091C77.7622 6.38091 77.8927 6.32634 78.0042 6.21719C78.1157 6.10805 78.1727 5.97755 78.1727 5.82569C78.1727 5.6596 78.1157 5.5196 77.9995 5.40334L77.9662 5.37487L77.933 5.33928L77.8974 5.30843C77.8334 5.24437 77.7812 5.17556 77.7408 5.102C77.6981 5.03082 77.6791 4.95489 77.6791 4.88133C77.7574 4.88133 77.831 4.90032 77.8951 4.93828C77.9615 4.97624 78.0374 5.04268 78.1228 5.13285C78.2106 5.22538 78.2889 5.28945 78.3601 5.32504C78.4337 5.36063 78.5167 5.37724 78.614 5.37724C78.7659 5.37724 78.9011 5.32267 79.0103 5.21352C79.1218 5.10437 79.174 4.9715 79.174 4.81252C79.174 4.65355 79.1194 4.51593 79.0079 4.40441C78.8964 4.29526 78.7635 4.23832 78.6093 4.23832C78.4432 4.23832 78.3008 4.30238 78.1845 4.42814C78.0683 4.55389 77.9781 4.63694 77.914 4.67728C77.8476 4.71524 77.7693 4.73422 77.6815 4.73422C77.691 4.63931 77.7124 4.55864 77.7456 4.49458C77.7788 4.43288 77.8429 4.3617 77.9378 4.27628C78.0303 4.19324 78.0944 4.11494 78.1276 4.04375C78.1608 3.97257 78.1798 3.88478 78.1798 3.78275C78.1798 3.63564 78.1228 3.50514 78.0089 3.39837C77.8974 3.29159 77.7598 3.23702 77.6056 3.23702C77.4514 3.23702 77.3232 3.29159 77.2141 3.40311C77.1026 3.51463 77.048 3.6475 77.048 3.79699C77.048 3.88952 77.0646 3.97257 77.1002 4.04375C77.1358 4.11494 77.1998 4.19561 77.29 4.2834C77.3802 4.37119 77.4442 4.44712 77.4822 4.51356C77.5178 4.58 77.5391 4.65355 77.5391 4.73422C77.449 4.73422 77.3731 4.71524 77.3137 4.68202C77.2544 4.64643 77.1643 4.56576 77.0432 4.44238L77.0338 4.44Z" fill="white"/>
<path d="M72.6109 21.1181H0.125756V21.2272H72.6109V21.1181Z" fill="white" stroke="white" stroke-width="0.5" stroke-miterlimit="10"/>
</g>
<defs>
<clipPath id="clip0_10_2">
<rect width="93" height="25.481" fill="white" transform="translate(0 0.657837)"/>
</clipPath>
</defs>
</svg>
