<svg width="20" height="20" viewBox="0 0 20 20" fill="none" xmlns="http://www.w3.org/2000/svg">
<path fill-rule="evenodd" clip-rule="evenodd" d="M8.75002 3.3333C7.31343 3.3333 5.93568 3.90398 4.91986 4.91981C3.90404 5.93563 3.33335 7.31338 3.33335 8.74997C3.33335 10.1866 3.90404 11.5643 4.91986 12.5801C5.93568 13.596 7.31343 14.1666 8.75002 14.1666C10.1866 14.1666 11.5644 13.596 12.5802 12.5801C13.596 11.5643 14.1667 10.1866 14.1667 8.74997C14.1667 7.31338 13.596 5.93563 12.5802 4.91981C11.5644 3.90398 10.1866 3.3333 8.75002 3.3333ZM1.66669 8.74997C1.66678 7.62046 1.93699 6.50735 2.45477 5.50351C2.97254 4.49967 3.72287 3.63421 4.64315 2.97933C5.56343 2.32445 6.62698 1.89914 7.74506 1.73889C8.86314 1.57864 10.0033 1.68809 11.0705 2.05812C12.1377 2.42814 13.1009 3.04801 13.8798 3.866C14.6587 4.68399 15.2307 5.67639 15.548 6.7604C15.8654 7.8444 15.9189 8.98859 15.7041 10.0975C15.4893 11.2064 15.0125 12.2478 14.3134 13.135L17.3567 16.1783C17.5085 16.3355 17.5925 16.546 17.5906 16.7645C17.5887 16.983 17.501 17.192 17.3465 17.3465C17.192 17.501 16.983 17.5886 16.7645 17.5905C16.546 17.5924 16.3355 17.5084 16.1784 17.3566L13.135 14.3133C12.0905 15.1366 10.8354 15.6493 9.51313 15.7926C8.1909 15.9358 6.85504 15.704 5.65843 15.1235C4.46183 14.543 3.45282 13.6374 2.74688 12.5102C2.04094 11.3831 1.6666 10.0799 1.66669 8.74997ZM7.91669 5.8333C7.91669 5.61229 8.00448 5.40033 8.16077 5.24405C8.31705 5.08776 8.52901 4.99997 8.75002 4.99997C9.74458 4.99997 10.6984 5.39506 11.4017 6.09832C12.1049 6.80158 12.5 7.75541 12.5 8.74997C12.5 8.97098 12.4122 9.18294 12.2559 9.33922C12.0997 9.4955 11.8877 9.5833 11.6667 9.5833C11.4457 9.5833 11.2337 9.4955 11.0774 9.33922C10.9212 9.18294 10.8334 8.97098 10.8334 8.74997C10.8334 8.19743 10.6139 7.66753 10.2232 7.27683C9.83246 6.88613 9.30256 6.66663 8.75002 6.66663C8.52901 6.66663 8.31705 6.57884 8.16077 6.42256C8.00448 6.26628 7.91669 6.05431 7.91669 5.8333Z" fill="#FF4800"/>
</svg>
